# AST/ASF file generated using VICON BodyLanguage
# -----------------------------------------------
:version 1.10
:name VICON
:units
  mass 1.0
  length 0.45
  angle deg
:documentation
   .ast/.asf automatically generated from VICON data using
   VICON BodyBuilder and BodyLanguage model FoxedUp or BRILLIANT.MOD
:root
   order TX TY TZ RX RY RZ
   axis XYZ
   position 0 0 0  
   orientation 0 0 0 
:bonedata
  begin
     id 1 
     name lhipjoint
     direction 0.623415 -0.642378 0.445763 
     length 2.49859 
     axis 0 0 0  XYZ
  end
  begin
     id 2 
     name lfemur
     direction 0.34202 -0.939693 0  
     length 6.69689  
     axis 0 0 20  XYZ
    dof rx ry rz
    limits (-160.0 20.0)
           (-70.0 70.0)
           (-60.0 70.0)
  end
  begin
     id 3 
     name ltibia
     direction 0.34202 -0.939693 0   
     length 7.37574   
     axis 0 0 20   XYZ
    dof rx
    limits (-10.0 170.0)
  end
  begin
     id 4 
     name lfoot
     direction 0.084323 -0.231675 0.969132   
     length 2.09111   
     axis -90 7.62852e-016 20   XYZ
    dof rx rz
    limits (-45.0 90.0)
           (-70.0 20.0)
  end
  begin
     id 5 
     name ltoes
     direction 1.5357e-011 -4.21957e-011 1   
     length 1.04989   
     axis -90 7.62852e-016 20   XYZ
    dof rx
    limits (-90.0 20.0)
  end
  begin
     id 6 
     name rhipjoint
     direction -0.605402 -0.653903 0.45376   
     length 2.45455  
     axis 0 0 0  XYZ 
  end
  begin
     id 7 
     name rfemur
     direction -0.34202 -0.939693 0   
     length 6.64523   
     axis 0 0 -20   XYZ
    dof rx ry rz
    limits (-160.0 20.0)
           (-70.0 70.0)
           (-70.0 60.0)
  end
  begin
     id 8 
     name rtibia
     direction -0.34202 -0.939693 0   
     length 7.3339   
     axis 0 0 -20   XYZ
    dof rx
    limits (-10.0 170.0)
 end
 begin
     id 9 
     name rfoot
     direction -0.120854 -0.332043 0.93549   
     length 2.23135  
     axis -90 -7.62852e-016 -20   XYZ
    dof rx rz
    limits (-45.0 90.0)
           (-20.0 70.0)
  end
  begin
     id 10 
     name rtoes
     direction -1.53563e-011 -4.21914e-011 1   
     length 1.10614   
     axis -90 -7.62852e-016 -20   XYZ
    dof rx
    limits (-90.0 20.0)
  end
  begin
     id 11 
     name lowerback
     direction 0.0319682 0.998615 -0.0417941   
     length 2.02718   
     axis 0 0 0   XYZ
    dof rx ry rz
    limits (-20.0 45.0)
           (-30.0 30.0)
           (-30.0 30.0)
  end
  begin
     id 12 
     name upperback
     direction 7.63181e-005 0.995808 0.0914691   
     length 1.97539   
     axis 0 0 0   XYZ
    dof rx ry rz
    limits (-20.0 45.0)
           (-30.0 30.0)
           (-30.0 30.0)
  end
  begin
     id 13 
     name thorax
     direction -0.016423 0.993627 0.111514   
     length 2.00349   
     axis 0 0 0   XYZ
    dof rx ry rz
    limits (-20.0 45.0)
           (-30.0 30.0)
           (-30.0 30.0)
  end
  begin
     id 14 
     name lowerneck
     direction -0.174763 0.981668 -0.0760716   
     length 1.71436   
     axis 0 0 0   XYZ
    dof rx ry rz
    limits (-20.0 45.0)
           (-30.0 30.0)
           (-30.0 30.0)
  end
  begin
     id 15 
     name upperneck
     direction 0.345458 0.934587 -0.0848868   
     length 1.72805   
     axis 0 0 0   XYZ
    dof rx ry rz
    limits (-20.0 45.0)
           (-30.0 30.0)
           (-30.0 30.0)
  end
  begin
     id 16
     name head
     direction 0.13001 0.989848 -0.0574291  
     length 1.767  
     axis 0 0 0   XYZ
    dof rx ry rz
    limits (-20.0 45.0)
           (-30.0 30.0)
           (-30.0 30.0)
  end
  begin
     id 17 
     name lclavicle
     direction 0.952951 0.290122 0.0878234  
     length 3.54654  
     axis 0 0 0   XYZ
    dof ry rz
    limits (-20.0 10.0)
           (0.0 20.0)
  end
  begin
     id 18 
     name lhumerus
     direction 1 -4.48957e-011 -4.56525e-028   
     length 5.19807   
     axis 180 -30 -90   XYZ
    dof rx ry rz
    limits (-60.0 90.0)
           (-90.0 90.0)
           (-90.0 90.0)
  end
  begin
     id 19
     name lradius
     direction 1 -4.48979e-011 -2.0317e-027   
     length 3.0937   
     axis 180 -30 -90   XYZ
    dof rx
    limits (-10.0 170.0)
  end
  begin
     id 20
     name lwrist
     direction 1 -4.48953e-011 -3.05809e-027   
     length 1.54685   
     axis 8.48514e-016 90 90   XYZ
    dof ry
    limits (-180.0 0.0)
 end
  begin
     id 21 
     name lhand
     direction 1 -4.48952e-011 -6.11639e-027   
     length 0.672632   
     axis 3.9013e-015 90 90   XYZ
    dof rx rz
    limits (-90.0 90.0)
           (-45.0 45.0)
  end
  begin
     id 22 
     name lfingers
     direction 1 -4.48925e-011 -1.22426e-026   
     length 0.542293   
     axis 7.80276e-015 90 90   XYZ
    dof rx
    limits (0.0 90.0)
  end
  begin
     id 23
     name lthumb
     direction 0.707107 -6.3486e-011 0.707107   
     length 0.778628   
     axis -90 45 5.37419e-014   XYZ
    dof rx rz
    limits (-45.0 45.0)
           (-45.0 45.0)
  end
  begin
     id 24 
     name rclavicle
     direction -0.960732 0.273675 -0.0457849   
     length 3.52079  
     axis 0 0 0   XYZ 
    dof ry rz
    limits (-10.0 20.0)
           (-20.0 0.0)
  end
  begin
     id 25 
     name rhumerus
     direction -1 -4.48976e-011 -1.63613e-027  
     length 5.45222   
     axis 180 30 90   XYZ
    dof rx ry rz
    limits (-90.0 60.0)
           (-90.0 90.0)
           (-90.0 90.0)
  end
  begin
     id 26 
     name rradius
     direction -1 -4.48957e-011 -7.00033e-028   
     length 3.01284   
     axis 180 30 90   XYZ
    dof rx
    limits (-10.0 170.0)
  end
  begin
     id 27 
     name rwrist
     direction -1 -4.48983e-011 -3.05543e-027   
     length 1.50642   
     axis 8.48514e-016 -90 -90   XYZ
    dof ry
    limits (-180.0 0.0)
  end
  begin
     id 28
     name rhand
     direction -1 -4.48984e-011 -6.11072e-027   
     length 0.622296   
     axis 3.9013e-015 -90 -90   XYZ
    dof rx rz
    limits (-90.0 90.0)
           (-45.0 45.0)
  end
  begin
     id 29
     name rfingers
     direction -1 -4.48865e-011 -1.22637e-026   
     length 0.501711   
     axis 7.80276e-015 -90 -90   XYZ
    dof rx
    limits (0.0 90.0)
  end
  begin
     id 30
     name rthumb
     direction -0.707107 -6.34932e-011 0.707107   
     length 0.72036   
     axis -90 -45 -5.37419e-014   XYZ
    dof rx rz
    limits (-45.0 45.0)
           (-45.0 45.0)
  end
:hierarchy
  begin
    root lhipjoint rhipjoint lowerback
    lhipjoint lfemur
    lfemur ltibia
    ltibia lfoot
    lfoot ltoes
    rhipjoint rfemur
    rfemur rtibia
    rtibia rfoot
    rfoot rtoes
    lowerback upperback
    upperback thorax
    thorax lowerneck lclavicle rclavicle
    lowerneck upperneck
    upperneck head
    lclavicle lhumerus
    lhumerus lradius
    lradius lwrist
    lwrist lhand lthumb
    lhand lfingers
    rclavicle rhumerus
    rhumerus rradius
    rradius rwrist
    rwrist rhand rthumb
    rhand rfingers
  end

#!OML:ASF H:\Not Pregnant\Project 1\Capture day 1\Session 1\non-pregnant.ASF
:FULLY-SPECIFIED
:DEGREES
173
root -6.12093 15.939 21.4766 -169.422 0.330115 -174.121
lowerback -3.71052 3.40115 11.3485
upperback -7.65867 5.2923 -0.813762
thorax -5.02604 2.34112 -7.22296
lowerneck 26.3018 -5.89398 -30.1482
upperneck -12.8582 -18.8404 43.3546
head -0.220265 -13.6903 24.4872
rclavicle -2.52457e-014 -1.61016e-014
rhumerus -33.5369 -6.76659 -88.1628
rradius 29.9585
rwrist 19.7402
rhand -9.99192 -0.182149
rfingers 7.12502
rthumb 15.9914 -29.5421
lclavicle -2.52457e-014 -1.61016e-014
lhumerus -49.852 2.03969 80.8596
lradius 28.8601
lwrist 38.8646
lhand -17.0806 -5.86605
lfingers 7.12502
lthumb 9.15758 23.9151
rfemur 12.2491 2.01628 30.089
rtibia 4.79682
rfoot 2.07779 26.8287
rtoes -4.87836
lfemur -45.0679 3.08746 -19.2623
ltibia 34.5014
lfoot 1.49483 -19.4102
ltoes 2.97044
174
root -6.13003 15.9467 21.3018 -169.468 0.221924 -174.469
lowerback -3.92361 3.26005 10.9331
upperback -7.66832 5.07672 -0.885175
thorax -4.97418 2.25743 -7.05816
lowerneck 26.2732 -5.81877 -30.1291
upperneck -12.7423 -18.7639 43.3336
head -0.229393 -13.6554 24.4863
rclavicle -2.75565e-014 -2.48481e-014
rhumerus -34.1295 -7.0817 -88.0356
rradius 29.6875
rwrist 19.8817
rhand -9.9895 -0.216218
rfingers 7.12502
rthumb 15.9938 -29.576
lclavicle -2.75565e-014 -2.48481e-014
lhumerus -49.9949 2.34741 80.4924
lradius 27.9401
lwrist 36.6815
lhand -16.8602 -6.57051
lfingers 7.12502
lthumb 9.37027 23.2012
rfemur 11.1185 1.94353 29.6538
rtibia 7.93299
rfoot 2.23556 27.133
rtoes -5.60842
lfemur -44.5133 2.46476 -19.4687
ltibia 34.9887
lfoot 0.253157 -18.8733
ltoes 2.85057
175
root -6.13845 15.9528 21.1272 -169.518 0.0858108 -174.842
lowerback -4.14646 3.11025 10.4878
upperback -7.6725 4.8499 -0.961731
thorax -4.91206 2.17007 -6.8816
lowerneck 26.2369 -5.74943 -30.1148
upperneck -12.6123 -18.6957 43.3064
head -0.229618 -13.6226 24.476
rclavicle 1.14053e-014 2.62396e-014
rhumerus -34.7128 -7.40526 -87.8691
rradius 29.3437
rwrist 20.073
rhand -9.98372 -0.227152
rfingers 7.12502
rthumb 15.9993 -29.5865
lclavicle 1.14053e-014 2.62396e-014
lhumerus -50.1215 2.59581 80.1753
lradius 27.0813
lwrist 34.5144
lhand -16.6604 -7.19711
lfingers 7.12502
lthumb 9.56304 22.5659
rfemur 10.1764 1.83968 29.201
rtibia 10.6651
rfoot 2.85311 27.3798
rtoes -6.22404
lfemur -43.9355 1.7761 -19.6453
ltibia 35.4185
lfoot -0.822935 -18.4227
ltoes 2.68516
176
root -6.14607 15.9567 20.9534 -169.577 -0.0773903 -175.223
lowerback -4.36354 2.94992 10.0211
upperback -7.67531 4.61288 -1.03352
thorax -4.85286 2.07864 -6.68891
lowerneck 26.2075 -5.67831 -30.1147
upperneck -12.474 -18.6313 43.2746
head -0.226006 -13.5904 24.4654
rclavicle -3.91357e-014 7.95139e-015
rhumerus -35.2921 -7.72396 -87.6577
rradius 28.9266
rwrist 20.3112
rhand -9.94406 -0.273343
rfingers 7.12502
rthumb 16.0375 -29.6296
lclavicle -3.91357e-014 7.95139e-015
lhumerus -50.263 2.75107 79.9576
lradius 26.3706
lwrist 32.5472
lhand -16.5333 -7.63956
lfingers 7.12502
lthumb 9.68568 22.1177
rfemur 9.26994 1.75305 28.7494
rtibia 13.2919
rfoot 3.81051 27.5176
rtoes -6.68403
lfemur -43.3314 1.06813 -19.8058
ltibia 35.7986
lfoot -1.78518 -18.074
ltoes 2.51145
177
root -6.15303 15.9593 20.781 -169.647 -0.257367 -175.604
lowerback -4.56863 2.78326 9.54405
upperback -7.67774 4.37205 -1.09842
thorax -4.79926 1.98563 -6.48433
lowerneck 26.1837 -5.60712 -30.1275
upperneck -12.3169 -18.5734 43.2329
head -0.215328 -13.5592 24.4481
rclavicle 1.66482e-014 -1.51076e-014
rhumerus -35.8679 -8.05121 -87.3936
rradius 28.4443
rwrist 20.6128
rhand -9.86024 -0.338524
rfingers 7.12502
rthumb 16.1182 -29.6883
lclavicle 1.66482e-014 -1.51076e-014
lhumerus -50.4133 2.80417 79.8541
lradius 25.8221
lwrist 30.8834
lhand -16.4572 -7.85732
lfingers 7.12502
lthumb 9.75907 21.8966
rfemur 8.3723 1.56256 28.2777
rtibia 15.8513
rfoot 5.14819 27.6445
rtoes -7.03899
lfemur -42.7118 0.387841 -19.9735
ltibia 36.1378
lfoot -2.66769 -17.8364
ltoes 2.32236
178
root -6.15945 15.9616 20.6105 -169.723 -0.443388 -175.973
lowerback -4.75721 3.57849 8.98507
upperback -7.67017 3.91615 -1.25302
thorax -4.67604 1.14296 -6.26763
lowerneck 26.1676 -5.53652 -30.1544
upperneck -12.1503 -18.5231 43.1849
head -0.199142 -13.5303 24.4279
rclavicle 1.07344e-014 -2.3059e-014
rhumerus -36.4379 -8.38348 -87.0745
rradius 27.9007
rwrist 20.9866
rhand -9.72405 -0.400758
rfingers 7.12502
rthumb 16.2494 -29.7398
lclavicle 1.07344e-014 -2.3059e-014
lhumerus -50.5742 2.7425 79.8849
lradius 25.4668
lwrist 29.6481
lhand -16.438 -7.78691
lfingers 7.12502
lthumb 9.77759 21.9661
rfemur 7.46907 1.26349 27.7875
rtibia 18.3446
rfoot 6.92426 27.7266
rtoes -7.18848
lfemur -42.0821 -0.234929 -20.1605
ltibia 36.4378
lfoot -3.49462 -17.6803
ltoes 2.1547
179
root -6.1662 15.9649 20.4411 -169.816 -0.602914 -176.316
lowerback -4.90805 3.42546 8.52657
upperback -7.67167 3.69823 -1.2978
thorax -4.64707 1.0571 -6.05657
lowerneck 26.1422 -5.4776 -30.1869
upperneck -11.9682 -18.4876 43.1242
head -0.171141 -13.505 24.3904
rclavicle -1.78906e-014 -5.96354e-015
rhumerus -37.0062 -8.72543 -86.6972
rradius 27.3177
rwrist 21.4523
rhand -9.54476 -0.438865
rfingers 7.12502
rthumb 16.422 -29.7637
lclavicle -1.78906e-014 -5.96354e-015
lhumerus -50.7265 2.62726 79.9819
lradius 25.2254
lwrist 28.7259
lhand -16.2874 -7.67241
lfingers 7.12502
lthumb 9.92285 22.0737
rfemur 6.57115 0.883654 27.2823
rtibia 20.7573
rfoot 9.18109 27.7168
rtoes -7.03293
lfemur -41.4182 -0.779653 -20.3647
ltibia 36.6975
lfoot -4.30663 -17.5414
ltoes 2.02218
180
root -6.17315 15.97 20.2739 -169.914 -0.736874 -176.629
lowerback -5.02463 3.2829 8.09346
upperback -7.67205 3.49954 -1.33002
thorax -4.63041 0.979375 -5.8476
lowerneck 26.1004 -5.43119 -30.2281
upperneck -11.7768 -18.4667 43.0553
head -0.130527 -13.4834 24.3393
rclavicle -4.67144e-015 -1.2921e-014
rhumerus -37.5558 -9.07155 -86.2631
rradius 26.7023
rwrist 22.01
rhand -9.28531 -0.488143
rfingers 7.12502
rthumb 16.6718 -29.7922
lclavicle -4.67144e-015 -1.2921e-014
lhumerus -50.8547 2.48562 80.1226
lradius 25.0787
lwrist 28.1294
lhand -15.9843 -7.53565
lfingers 7.12502
lthumb 10.2153 22.1963
rfemur 5.65548 0.443241 26.7683
rtibia 23.0873
rfoot 11.8954 27.5519
rtoes -6.53956
lfemur -40.7302 -1.24765 -20.5883
ltibia 36.9117
lfoot -5.11354 -17.3835
ltoes 1.98475
181
root -6.18099 15.9777 20.1085 -170.02 -0.820033 -176.9
lowerback -5.10766 3.15977 7.70698
upperback -7.66888 3.33136 -1.34725
thorax -4.62101 0.91494 -5.64956
lowerneck 26.0474 -5.39367 -30.2765
upperneck -11.5825 -18.4547 42.9799
head -0.0825548 -13.4633 24.2791
rclavicle 3.07122e-014 1.33186e-014
rhumerus -38.0899 -9.40654 -85.7785
rradius 26.07
rwrist 22.6655
rhand -8.97177 -0.508507
rfingers 7.12502
rthumb 16.9736 -29.7869
lclavicle 3.07122e-014 1.33186e-014
lhumerus -50.9766 2.26276 80.3804
lradius 25.0703
lwrist 27.7942
lhand -15.7177 -7.23865
lfingers 7.12502
lthumb 10.4725 22.4805
rfemur 4.71758 -0.00868673 26.2558
rtibia 25.3407
rfoot 14.9931 27.2157
rtoes -5.9219
lfemur -40.0051 -1.63603 -20.8151
ltibia 37.0757
lfoot -5.92086 -17.1595
ltoes 2.05483
182
root -6.18936 15.9877 19.9461 -170.124 -0.856813 -177.131
lowerback -5.15561 3.0505 7.35772
upperback -7.67079 3.18514 -1.3446
thorax -4.63149 0.858855 -5.45244
lowerneck 26.0041 -5.35001 -30.3415
upperneck -11.3954 -18.4369 42.9019
head -0.0390891 -13.4391 24.2263
rclavicle 1.28216e-014 -1.98785e-016
rhumerus -38.6027 -9.706 -85.2518
rradius 25.4191
rwrist 23.4086
rhand -8.61239 -0.503066
rfingers 7.12502
rthumb 17.3195 -29.7514
lclavicle 1.28216e-014 -1.98785e-016
lhumerus -51.1038 1.99364 80.7277
lradius 25.1986
lwrist 27.6681
lhand -15.4643 -6.82653
lfingers 7.12502
lthumb 10.7169 22.8801
rfemur 3.7272 -0.430716 25.7558
rtibia 27.5417
rfoot 18.3237 26.7193
rtoes -5.34512
lfemur -39.2548 -1.93891 -21.0468
ltibia 37.1796
lfoot -6.7161 -16.8796
ltoes 2.26156
183
root -6.19861 16 19.7872 -170.221 -0.838318 -177.33
lowerback -5.17084 2.959 7.04767
upperback -7.66959 3.06632 -1.33167
thorax -4.65087 0.814947 -5.26705
lowerneck 25.9526 -5.3101 -30.4122
upperneck -11.2263 -18.4187 42.8295
head 0.0028979 -13.4142 24.1788
rclavicle 2.84262e-014 -1.35174e-014
rhumerus -39.0729 -9.98214 -84.6938
rradius 24.7657
rwrist 24.2222
rhand -8.1822 -0.482859
rfingers 7.12502
rthumb 17.7335 -29.6942
lclavicle 2.84262e-014 -1.35174e-014
lhumerus -51.2149 1.67379 81.16
lradius 25.4594
lwrist 27.6939
lhand -15.2559 -6.23888
lfingers 7.12502
lthumb 10.9179 23.4573
rfemur 2.66498 -0.794993 25.2625
rtibia 29.719
rfoot 21.648 26.1458
rtoes -5.17445
lfemur -38.4789 -2.14082 -21.2903
ltibia 37.2141
lfoot -7.4927 -16.5676
ltoes 2.5926
184
root -6.2084 16.0143 19.6323 -170.311 -0.778173 -177.518
lowerback -5.15571 2.88102 6.75853
upperback -7.65568 2.97023 -1.31825
thorax -4.66896 0.783034 -5.09327
lowerneck 25.8812 -5.28379 -30.4765
upperneck -11.0922 -18.4052 42.7727
head 0.043926 -13.3923 24.1375
rclavicle -5.09386e-015 -6.95746e-015
rhumerus -39.4746 -10.2521 -84.1141
rradius 24.1157
rwrist 25.0972
rhand -7.68174 -0.454878
rfingers 7.12502
rthumb 18.215 -29.622
lclavicle -5.09386e-015 -6.95746e-015
lhumerus -51.2965 1.28797 81.6779
lradius 25.8454
lwrist 27.9313
lhand -15.1005 -5.64698
lfingers 7.12502
lthumb 11.0678 24.0412
rfemur 1.52003 -1.09941 24.7668
rtibia 31.9113
rfoot 24.6985 25.6061
rtoes -5.64599
lfemur -37.6777 -2.2403 -21.5598
ltibia 37.1692
lfoot -8.23792 -16.2676
ltoes 3.05193
